# xmcd CD database file
#
# Track frame offsets:
#	150
#	11925
#	20850
#	34277
#	47987
#	57225
#	69675
#	89212
#	103450
#	115590
#	127585
#	141010
#	153340
#	170592
#	179862
#	194775
#	206637
#	219175
#	235392
#
# Disc length: 3289 seconds
#
# Revision: 0
# Processed by: cddbd v1.4PL0 Copyright (c) Steve Scherf et al.
# Submitted via: CDex 1.50
#
DISCID=2c0cd713
DTITLE=Baguette Quartette - Chez Moi
DYEAR=2001
DGENRE=Jazz
TTITLE0=Fetiche
TTITLE1=Elle est epatante
TTITLE2=Le chemin des forains
TTITLE3=Matelotte
TTITLE4=Un petit cabanon
TTITLE5=Chez moi
TTITLE6=J'attendrai
TTITLE7=Valse des niglos
TTITLE8=Sous les orangers
TTITLE9=Reve bohemien
TTITLE10=Volver
TTITLE11=La guingutette a ferme ses volets
TTITLE12=Mon premier amour
TTITLE13=Gosse de Paris
TTITLE14=Reproche
TTITLE15=Retintin
TTITLE16=Leo, Lea, Elie
TTITLE17=Reviens
TTITLE18=Viens, gosse de gosse
EXTD=YEAR: 2001
EXTT0=
EXTT1=
EXTT2=
EXTT3=
EXTT4=
EXTT5=
EXTT6=
EXTT7=
EXTT8=
EXTT9=
EXTT10=
EXTT11=
EXTT12=
EXTT13=
EXTT14=
EXTT15=
EXTT16=
EXTT17=
EXTT18=
PLAYORDER=
